<svg xmlns="http://www.w3.org/2000/svg" xmlns:xlink="http://www.w3.org/1999/xlink" width="1050" height="1050"
     fill="#ffffff" viewBox="0 0 1295 1295" xmlns:v="https://vecta.io/nano">
  <defs>
    <linearGradient id="A" gradientUnits="userSpaceOnUse">
      <stop offset="0" /><stop stop-opacity="0" offset="1" />
    </linearGradient>
    <linearGradient id="B" x1="700" x2="777.709" y1="380.182" y2="302.474" xlink:href="#A" />
    <linearGradient id="C" x1="8.063" x2="9.359" y1="4.619" y2="5.916" xlink:href="#A" />
    <linearGradient id="D" x1="13.312" x2="11.583" y1="14.018" y2="12.289" xlink:href="#A" />
    <linearGradient id="E" x1="918.39" x2="1010.855" y1="198.897" y2="291.327" xlink:href="#A" />
    <filter id="F" x="-.126" y="-.078" width="1.252" height="1.155" color-interpolation-filters="sRGB">
      <feGaussianBlur stdDeviation=".121" />
    </filter>
    <filter x="-.077" y="-.049" width="1.154" height="1.098" color-interpolation-filters="sRGB">
      <feGaussianBlur stdDeviation="24.028" />
    </filter>
    <path id="H"
          d="M1088 171L878.82 380.18h91.672c74.387 0 135.24-63.337 135.24-140.74 0-24.903-6.706-48.095-17.73-68.444z" />
    <path id="I"
          d="M835.24 98.705c-74.387 0-135.24 63.337-135.24 140.74v5.498l135.24 135.24h43.568l209.18-209.18c-23.24-42.896-67.058-72.293-117.5-72.293z" />
  </defs>
  <g transform="matrix(.92692 0 0 .925 -1.3625 -29.636)">
    <path
      d="M565.86 802.4c-29.325-.164-59.793 4.734-90.985 16.08-90.616 33.775-160.38 117.54-176.6 216.05-31.107 192.8 125.86 357.5 310.47 327.24 132.54-21.813 226.5-148.46 226.5-288.48v-97.032l-135.24-135.24c-39.73-23.748-85.265-38.34-134.14-38.62z"
      fill="#1976d2" />
    <path d="M835.24 423.75L700 559V841l135.24 135.24z" fill="#303f9f" />
    <path transform="matrix(70.369 0 0 70.369 132.65 98.705)"
          d="M7.943 10.642c-.396.447-.546.886-.547 1.477 0 1.257 1.02 2.275 2.275 2.275.1-.001-.003-.03.008-.096-1.883-.5-2.566-2.02-1.678-3.622z"
          fill="#000" filter="url(#F)" />
    <g transform="matrix(52.777 0 0 52.777 132.65 98.705)">
      <path d="M10.75 14.018l2.563-2.562V6.112L10.75 3.55z" fill="url(#D)" />
      <path transform="scale(1.3333)" d="M9.984 4.62L8.063 6.54v4.008l1.922 1.922z" fill="url(#C)" />
    </g>
    <path
      d="M835.223 703.29l-136.936 136.94c-28.916 29.828-45.11 69.725-45.166 111.268.022 88.42 71.696 160.094 160.116 160.116 6.344-.08 12.677-.54 18.966-1.372l.83-.09c1.408-11.874 2.155-23.906 2.187-36.043h-.005l.013-.84V793.036z"
      fill="#64b5f6" />
    <use xlink:href="#H" fill="#0d47a1" /><use xlink:href="#H" fill="url(#E)" />
    <use xlink:href="#I" fill="#2196f3" /><use xlink:href="#I" fill="url(#B)" />
    <path d="M700 244.94V559l135.24-135.24v-43.568z" fill="#64b5f6" />
  </g>
</svg>